<mxfile host="app.diagrams.net" modified="2022-01-09T03:57:00.109Z" agent="5.0 (Windows NT 10.0; Win64; x64) AppleWebKit/537.36 (KHTML, like Gecko) Chrome/97.0.4692.71 Safari/537.36" etag="X16qpYzk1G8T4mroYMOc" version="16.1.0" type="github">
  <diagram id="bY5VQnrXHyl9OapcQUdp" name="Page-1">
    <mxGraphModel dx="868" dy="482" grid="1" gridSize="10" guides="1" tooltips="1" connect="1" arrows="1" fold="1" page="1" pageScale="1" pageWidth="850" pageHeight="1100" math="0" shadow="0">
      <root>
        <mxCell id="0" />
        <mxCell id="1" parent="0" />
        <mxCell id="0Rn5D7Gba_YOZaIPqoxK-1" value="" style="endArrow=classic;html=1;rounded=0;endFill=1;" edge="1" parent="1">
          <mxGeometry width="50" height="50" relative="1" as="geometry">
            <mxPoint x="80" y="370" as="sourcePoint" />
            <mxPoint x="80" y="130" as="targetPoint" />
          </mxGeometry>
        </mxCell>
        <mxCell id="0Rn5D7Gba_YOZaIPqoxK-2" value="" style="endArrow=classic;html=1;rounded=0;endFill=1;" edge="1" parent="1">
          <mxGeometry width="50" height="50" relative="1" as="geometry">
            <mxPoint x="70" y="360" as="sourcePoint" />
            <mxPoint x="320" y="360" as="targetPoint" />
          </mxGeometry>
        </mxCell>
        <mxCell id="0Rn5D7Gba_YOZaIPqoxK-3" value="" style="curved=1;endArrow=none;html=1;rounded=0;endFill=0;labelBorderColor=none;strokeColor=#007FFF;" edge="1" parent="1">
          <mxGeometry width="50" height="50" relative="1" as="geometry">
            <mxPoint x="90" y="120" as="sourcePoint" />
            <mxPoint x="280" y="360" as="targetPoint" />
            <Array as="points">
              <mxPoint x="110" y="290" />
              <mxPoint x="210" y="350" />
            </Array>
          </mxGeometry>
        </mxCell>
        <mxCell id="0Rn5D7Gba_YOZaIPqoxK-5" value="" style="endArrow=classic;html=1;rounded=0;endFill=1;" edge="1" parent="1">
          <mxGeometry width="50" height="50" relative="1" as="geometry">
            <mxPoint x="440" y="370" as="sourcePoint" />
            <mxPoint x="440" y="130" as="targetPoint" />
          </mxGeometry>
        </mxCell>
        <mxCell id="0Rn5D7Gba_YOZaIPqoxK-6" value="" style="endArrow=classic;html=1;rounded=0;endFill=1;" edge="1" parent="1">
          <mxGeometry width="50" height="50" relative="1" as="geometry">
            <mxPoint x="430" y="360" as="sourcePoint" />
            <mxPoint x="680" y="360" as="targetPoint" />
          </mxGeometry>
        </mxCell>
        <mxCell id="0Rn5D7Gba_YOZaIPqoxK-10" value="" style="endArrow=none;html=1;curved=1;strokeColor=#007FFF;" edge="1" parent="1">
          <mxGeometry width="50" height="50" relative="1" as="geometry">
            <mxPoint x="440" y="360" as="sourcePoint" />
            <mxPoint x="630" y="120" as="targetPoint" />
            <Array as="points">
              <mxPoint x="570" y="340" />
              <mxPoint x="630" y="250" />
            </Array>
          </mxGeometry>
        </mxCell>
        <mxCell id="0Rn5D7Gba_YOZaIPqoxK-11" value="If y=1" style="text;html=1;align=center;verticalAlign=middle;resizable=0;points=[];autosize=1;strokeColor=none;fillColor=none;fontSize=22;" vertex="1" parent="1">
          <mxGeometry x="130" y="105" width="70" height="30" as="geometry" />
        </mxCell>
        <mxCell id="0Rn5D7Gba_YOZaIPqoxK-12" value="If y=0" style="text;html=1;align=center;verticalAlign=middle;resizable=0;points=[];autosize=1;strokeColor=none;fillColor=none;fontSize=22;" vertex="1" parent="1">
          <mxGeometry x="490" y="105" width="70" height="30" as="geometry" />
        </mxCell>
        <mxCell id="0Rn5D7Gba_YOZaIPqoxK-13" value="0" style="text;html=1;align=center;verticalAlign=middle;resizable=0;points=[];autosize=1;strokeColor=none;fillColor=none;fontSize=22;" vertex="1" parent="1">
          <mxGeometry x="55" y="355" width="30" height="30" as="geometry" />
        </mxCell>
        <mxCell id="0Rn5D7Gba_YOZaIPqoxK-14" value="0" style="text;html=1;align=center;verticalAlign=middle;resizable=0;points=[];autosize=1;strokeColor=none;fillColor=none;fontSize=22;" vertex="1" parent="1">
          <mxGeometry x="415" y="355" width="30" height="30" as="geometry" />
        </mxCell>
        <mxCell id="0Rn5D7Gba_YOZaIPqoxK-15" value="1" style="text;html=1;align=center;verticalAlign=middle;resizable=0;points=[];autosize=1;strokeColor=none;fillColor=none;fontSize=22;" vertex="1" parent="1">
          <mxGeometry x="625" y="355" width="30" height="30" as="geometry" />
        </mxCell>
        <mxCell id="0Rn5D7Gba_YOZaIPqoxK-16" value="1" style="text;html=1;align=center;verticalAlign=middle;resizable=0;points=[];autosize=1;strokeColor=none;fillColor=none;fontSize=22;" vertex="1" parent="1">
          <mxGeometry x="265" y="355" width="30" height="30" as="geometry" />
        </mxCell>
        <mxCell id="0Rn5D7Gba_YOZaIPqoxK-18" value="" style="endArrow=none;dashed=1;html=1;labelBorderColor=none;fontSize=22;strokeColor=#000000;rounded=0;opacity=70;" edge="1" parent="1">
          <mxGeometry width="50" height="50" relative="1" as="geometry">
            <mxPoint x="639.5" y="360" as="sourcePoint" />
            <mxPoint x="639.5" y="120" as="targetPoint" />
          </mxGeometry>
        </mxCell>
        <mxCell id="0Rn5D7Gba_YOZaIPqoxK-20" value="" style="endArrow=none;dashed=1;html=1;labelBorderColor=none;fontSize=22;strokeColor=#000000;rounded=0;opacity=70;" edge="1" parent="1">
          <mxGeometry width="50" height="50" relative="1" as="geometry">
            <mxPoint x="279.5" y="360" as="sourcePoint" />
            <mxPoint x="279.5" y="120" as="targetPoint" />
          </mxGeometry>
        </mxCell>
        <mxCell id="0Rn5D7Gba_YOZaIPqoxK-21" value="h(x)" style="text;html=1;strokeColor=none;fillColor=none;align=center;verticalAlign=middle;whiteSpace=wrap;rounded=0;fontSize=22;" vertex="1" parent="1">
          <mxGeometry x="135" y="370" width="60" height="30" as="geometry" />
        </mxCell>
        <mxCell id="0Rn5D7Gba_YOZaIPqoxK-22" value="h(x)" style="text;html=1;strokeColor=none;fillColor=none;align=center;verticalAlign=middle;whiteSpace=wrap;rounded=0;fontSize=22;" vertex="1" parent="1">
          <mxGeometry x="520" y="370" width="60" height="30" as="geometry" />
        </mxCell>
      </root>
    </mxGraphModel>
  </diagram>
</mxfile>
